<svg width="16" height="16" viewBox="0 0 16 16" fill="none" xmlns="http://www.w3.org/2000/svg">
<path fill-rule="evenodd" clip-rule="evenodd" d="M11.5192 6.96167L8 14L4 6L8 2L9.12854 3.12854C9.04495 3.40432 9 3.69691 9 4C9 4.92709 9.42053 5.75595 10.0812 6.30625L8 7L5 6L8 12L10.6581 6.68387C10.9248 6.81752 11.2143 6.91256 11.5192 6.96167Z" fill="white"/>
<path d="M4.5 9L7 14L2 11V8.5L4.5 9Z" fill="white"/>
<path d="M11.5 9L9 14L14 11V8.5L11.5 9Z" fill="white"/>
<g clip-path="url(#clip0_1_163)">
<path d="M10 3H11.5H13L11.5 1.5" stroke="white"/>
<path d="M14 4.5H12.5H11L12.5 6" stroke="white"/>
</g>
<defs>
<clipPath id="clip0_1_163">
<rect width="6" height="6" fill="white" transform="translate(9 1)"/>
</clipPath>
</defs>
</svg>
